<?xml version="1.0" standalone="no"?>
<!DOCTYPE svg PUBLIC "-//W3C//DTD SVG 20010904//EN"
 "http://www.w3.org/TR/2001/REC-SVG-20010904/DTD/svg10.dtd">
<svg version="1.0" xmlns="http://www.w3.org/2000/svg"
 width="1080.000000pt" height="1080.000000pt" viewBox="0 0 1080.000000 1080.000000"
 preserveAspectRatio="xMidYMid meet">

<g transform="translate(0.000000,1080.000000) scale(0.100000,-0.100000)"
fill="#000000" stroke="none">
<path d="M0 5400 l0 -5400 5400 0 5400 0 0 5400 0 5400 -5400 0 -5400 0 0
-5400z m5840 5206 c306 -48 646 -143 880 -247 142 -63 392 -193 397 -206 3 -7
11 -13 19 -13 27 0 253 -151 409 -273 161 -126 409 -371 530 -522 44 -55 82
-102 85 -105 13 -11 70 -94 67 -97 -4 -4 -210 -20 -358 -29 l-117 -6 -43 46
c-231 246 -418 409 -638 556 -99 66 -289 174 -376 215 -33 15 -96 44 -140 64
-127 59 -363 135 -548 176 -129 29 -364 65 -428 65 -25 0 -50 5 -57 12 -11 11
-9 80 3 161 11 67 -28 5 -71 -115 l-17 -48 -50 0 -50 0 7 -387 c3 -214 11
-500 17 -638 l10 -250 -31 -200 c-18 -110 -35 -216 -38 -235 l-6 -35 -3 35
c-8 83 -45 313 -66 405 -21 90 -22 114 -16 235 15 257 29 705 29 886 l0 183
-41 3 -41 3 -36 93 c-35 88 -60 122 -48 65 5 -26 9 -114 7 -155 -1 -13 -10
-18 -33 -18 -67 0 -368 -50 -503 -84 -544 -136 -1010 -391 -1431 -783 -61 -57
-140 -137 -175 -178 l-64 -75 -80 1 c-150 2 -398 24 -402 35 -2 6 35 60 82
120 576 730 1398 1207 2305 1338 236 34 224 34 575 31 281 -2 326 -4 485 -29z
m2568 -1735 c17 -26 27 -53 24 -58 -17 -25 -210 -109 -318 -137 l-53 -14 -41
65 c-22 35 -40 68 -40 72 0 5 51 20 113 35 61 15 148 40 192 56 44 15 83 29
87 29 3 1 20 -21 36 -48z m-6013 -14 c72 -20 156 -41 187 -47 l57 -11 -42 -70
-42 -70 -43 5 c-90 12 -342 112 -342 137 0 7 12 32 26 57 21 35 30 43 47 39
12 -3 81 -21 152 -40z m6139 -219 c249 -519 368 -1041 367 -1623 0 -681 -196
-1331 -579 -1930 -76 -118 -197 -277 -312 -410 -55 -64 -279 -285 -350 -347
-440 -379 -988 -656 -1547 -782 -140 -31 -205 -43 -405 -71 -35 -5 -38 -3 -44
22 -15 64 -57 214 -80 286 -15 43 -24 79 -23 81 2 1 51 8 109 15 400 48 788
169 1130 352 148 79 147 79 200 114 25 17 53 35 61 40 233 145 519 406 740
675 77 94 228 312 255 370 4 8 18 31 30 51 114 183 248 519 318 794 50 198 96
516 96 660 l0 45 -237 -5 c-1047 -25 -1579 -53 -2108 -111 -209 -23 -591 -79
-603 -89 -2 -2 -11 -55 -21 -119 -10 -64 -20 -119 -23 -121 -3 -3 -11 8 -18
25 -13 32 -35 42 -26 13 3 -10 10 -63 16 -119 8 -80 8 -126 -4 -225 -15 -117
-47 -447 -61 -626 -8 -94 -24 -129 -79 -173 -43 -33 -60 -33 -108 3 -36 26
-35 26 -48 192 -17 220 -49 549 -66 680 -16 122 -19 233 -8 268 5 16 3 19 -10
14 -18 -7 -18 -4 -36 111 -7 39 -15 70 -18 68 -4 -2 -43 2 -87 10 -225 38
-788 99 -1185 128 -438 32 -1241 66 -1584 66 l-68 0 7 -102 c27 -401 125 -802
275 -1123 20 -44 48 -102 61 -130 24 -53 130 -234 188 -325 76 -117 261 -347
366 -455 156 -160 416 -375 558 -461 26 -16 76 -46 110 -67 102 -62 363 -190
493 -240 220 -85 535 -162 740 -182 99 -10 100 -11 76 -81 -20 -60 -75 -246
-86 -298 l-7 -28 -67 7 c-251 26 -654 135 -917 248 -925 397 -1622 1121 -1970
2047 -96 255 -179 590 -201 810 -3 30 -9 91 -14 135 -15 137 -12 596 5 740 35
306 113 616 230 915 42 109 162 360 171 360 3 0 38 -28 78 -63 54 -48 173
-137 244 -182 1 -1 -20 -49 -47 -107 -110 -231 -195 -497 -245 -763 -29 -156
-51 -401 -47 -524 l1 -34 378 6 c789 14 1509 59 2105 133 115 14 215 23 222
20 35 -13 151 -233 190 -358 15 -49 31 -88 36 -88 13 0 11 657 -2 681 -8 15
-4 62 15 187 32 207 49 339 76 602 11 113 23 225 27 250 l6 45 23 -50 c13 -27
41 -103 61 -167 21 -65 40 -118 43 -118 3 0 15 35 27 78 26 95 65 200 69 187
2 -5 12 -122 24 -260 12 -137 35 -356 53 -485 29 -221 32 -257 35 -597 1 -200
6 -363 10 -363 5 0 14 24 21 53 29 114 142 338 208 414 l28 32 185 -29 c577
-88 1370 -147 2244 -166 l299 -7 -7 119 c-18 312 -64 566 -153 848 -40 127
-121 324 -183 447 l-19 37 72 50 c40 27 110 84 157 126 47 41 88 76 93 76 4 0
36 -60 71 -132z m-3370 -4867 c17 -91 46 -284 46 -301 0 -6 -31 -10 -75 -10
l-75 0 0 89 c0 83 16 282 24 307 2 6 18 9 34 6 29 -4 31 -6 46 -91z m332 12
c4 -43 8 -132 8 -198 l1 -120 -72 -3 c-88 -3 -83 -21 -48 198 35 216 30 200
69 200 l34 0 8 -77z"/>
<path d="M1983 8153 c9 -2 23 -2 30 0 6 3 -1 5 -18 5 -16 0 -22 -2 -12 -5z"/>
<path d="M6958 4163 c7 -3 16 -2 19 1 4 3 -2 6 -13 5 -11 0 -14 -3 -6 -6z"/>
</g>
</svg>
